<?xml version="1.0" encoding="utf-8"?>
<!-- Generator: Adobe Illustrator 27.5.0, SVG Export Plug-In . SVG Version: 6.00 Build 0)  -->
<svg version="1.1" xmlns="http://www.w3.org/2000/svg" xmlns:xlink="http://www.w3.org/1999/xlink" x="0px" y="0px"
	 viewBox="0 0 2200 2200" style="enable-background:new 0 0 2200 2200;" xml:space="preserve">
<g id="background">
	<rect style="fill:#FFFFFF;" width="2200" height="2200"/>
</g>
<g id="Objects">
	<g>
		<linearGradient id="SVGID_1_" gradientUnits="userSpaceOnUse" x1="397.0655" y1="1036" x2="1808.2201" y2="1036">
			<stop  offset="0" style="stop-color:#11C3EF"/>
			<stop  offset="1" style="stop-color:#3B5CFF"/>
		</linearGradient>
		<path style="fill:url(#SVGID_1_);" d="M1796.464,901.341c-12.593-52.797-31.288-104.215-55.565-152.827
			c-23.833-47.723-53.119-92.892-87.042-134.253c-33.72-41.114-72.077-78.534-114.005-111.219
			c-23.243-18.12-56.777-13.967-74.897,9.278c-18.12,23.244-13.967,56.777,9.278,74.897
			c71.573,55.796,130.767,128.062,171.181,208.984c20.638,41.324,36.529,85.028,47.231,129.901
			c11.018,46.194,16.604,93.943,16.604,141.918c0,82.272-16.101,162.054-47.856,237.131
			c-30.683,72.543-74.62,137.704-130.59,193.674c-55.97,55.97-121.131,99.906-193.674,130.589
			c-75.077,31.755-154.859,47.856-237.131,47.856s-162.054-16.101-237.131-47.856c-72.543-30.683-137.704-74.62-193.674-130.589
			c-55.97-55.97-99.906-121.131-130.59-193.674c-31.754-75.077-47.856-154.859-47.856-237.131s16.101-162.054,47.856-237.131
			c30.683-72.543,74.62-137.704,130.59-193.673s121.131-99.906,193.674-130.589c75.077-31.755,154.859-47.856,237.131-47.856v37.799
			c0,21.592,24.657,33.911,41.923,20.946l121.402-91.164c13.954-10.478,13.954-31.414,0-41.892l-121.402-91.164
			c-17.266-12.965-41.923-0.646-41.923,20.946v37.799c-96.634,0-190.404,18.938-278.708,56.287
			c-85.265,36.064-161.829,87.681-227.566,153.418c-65.737,65.737-117.355,142.302-153.419,227.566
			c-37.349,88.304-56.287,182.075-56.287,278.708c0,96.634,18.938,190.404,56.287,278.708
			c36.064,85.265,87.682,161.829,153.419,227.566c65.737,65.737,142.301,117.355,227.566,153.418
			C909.596,1765.063,1003.366,1784,1100,1784s190.405-18.937,278.708-56.288c85.265-36.063,161.829-87.681,227.566-153.418
			c65.737-65.737,117.355-142.301,153.418-227.566c37.35-88.303,56.288-182.074,56.288-278.708
			C1815.98,1011.716,1809.413,955.637,1796.464,901.341z"/>
		
			<linearGradient id="SVGID_00000097466214098050637110000015514280895951815055_" gradientUnits="userSpaceOnUse" x1="397.0655" y1="593.3549" x2="1808.2201" y2="593.3549">
			<stop  offset="0" style="stop-color:#11C3EF"/>
			<stop  offset="1" style="stop-color:#3B5CFF"/>
		</linearGradient>
		<path style="fill:url(#SVGID_00000097466214098050637110000015514280895951815055_);" d="M1100,640.498
			c-9.824,0-17.788-7.964-17.788-17.788V564c0-9.824,7.964-17.788,17.788-17.788s17.788,7.964,17.788,17.788v58.71
			C1117.788,632.534,1109.824,640.498,1100,640.498z"/>
		
			<linearGradient id="SVGID_00000093156882357405824580000000597257514162805163_" gradientUnits="userSpaceOnUse" x1="397.0655" y1="732.3812" x2="1808.2201" y2="732.3812">
			<stop  offset="0" style="stop-color:#11C3EF"/>
			<stop  offset="1" style="stop-color:#3B5CFF"/>
		</linearGradient>
		<path style="fill:url(#SVGID_00000093156882357405824580000000597257514162805163_);" d="M785.118,770.927
			c-4.553,0-9.104-1.736-12.579-5.21l-41.514-41.515c-6.947-6.947-6.946-18.21,0.001-25.156c6.946-6.946,18.209-6.946,25.156,0
			l41.514,41.515c6.947,6.947,6.946,18.21-0.001,25.156C794.223,769.19,789.67,770.927,785.118,770.927z"/>
		
			<linearGradient id="SVGID_00000008107502655964407780000001201425997908177849_" gradientUnits="userSpaceOnUse" x1="397.0655" y1="1068.0203" x2="1808.2201" y2="1068.0203">
			<stop  offset="0" style="stop-color:#11C3EF"/>
			<stop  offset="1" style="stop-color:#3B5CFF"/>
		</linearGradient>
		<path style="fill:url(#SVGID_00000008107502655964407780000001201425997908177849_);" d="M654.689,1085.809h-58.71
			c-9.824,0-17.788-7.964-17.788-17.788c0-9.824,7.964-17.788,17.788-17.788h58.71c9.824,0,17.788,7.964,17.788,17.788
			C672.478,1077.845,664.514,1085.809,654.689,1085.809z"/>
		
			<linearGradient id="SVGID_00000016058816480175508590000014419117053295959429_" gradientUnits="userSpaceOnUse" x1="397.0655" y1="1403.6597" x2="1808.2201" y2="1403.6597">
			<stop  offset="0" style="stop-color:#11C3EF"/>
			<stop  offset="1" style="stop-color:#3B5CFF"/>
		</linearGradient>
		<path style="fill:url(#SVGID_00000016058816480175508590000014419117053295959429_);" d="M743.604,1442.205
			c-4.552,0-9.105-1.737-12.579-5.21c-6.946-6.947-6.946-18.21,0-25.157l41.514-41.514c6.947-6.945,18.21-6.945,25.157,0
			c6.946,6.947,6.946,18.21,0,25.157l-41.514,41.514C752.709,1440.467,748.156,1442.205,743.604,1442.205z"/>
		
			<linearGradient id="SVGID_00000137814138570977520090000015400339043332433059_" gradientUnits="userSpaceOnUse" x1="397.0655" y1="1542.686" x2="1808.2201" y2="1542.686">
			<stop  offset="0" style="stop-color:#11C3EF"/>
			<stop  offset="1" style="stop-color:#3B5CFF"/>
		</linearGradient>
		<path style="fill:url(#SVGID_00000137814138570977520090000015400339043332433059_);" d="M1100,1589.829
			c-9.824,0-17.788-7.964-17.788-17.788v-58.71c0-9.824,7.964-17.788,17.788-17.788s17.788,7.964,17.788,17.788v58.71
			C1117.788,1581.865,1109.824,1589.829,1100,1589.829z"/>
		
			<linearGradient id="SVGID_00000002361621394498434240000013185379324074137479_" gradientUnits="userSpaceOnUse" x1="397.0655" y1="1403.6597" x2="1808.2201" y2="1403.6597">
			<stop  offset="0" style="stop-color:#11C3EF"/>
			<stop  offset="1" style="stop-color:#3B5CFF"/>
		</linearGradient>
		<path style="fill:url(#SVGID_00000002361621394498434240000013185379324074137479_);" d="M1456.396,1442.205
			c-4.552,0-9.105-1.737-12.579-5.21l-41.514-41.514c-6.946-6.947-6.946-18.21,0-25.157c6.947-6.945,18.21-6.945,25.157,0
			l41.514,41.514c6.946,6.947,6.946,18.21,0,25.157C1465.501,1440.467,1460.948,1442.205,1456.396,1442.205z"/>
		
			<linearGradient id="SVGID_00000140008768550401251660000005583967989773996426_" gradientUnits="userSpaceOnUse" x1="397.0655" y1="1068.0203" x2="1808.2201" y2="1068.0203">
			<stop  offset="0" style="stop-color:#11C3EF"/>
			<stop  offset="1" style="stop-color:#3B5CFF"/>
		</linearGradient>
		<path style="fill:url(#SVGID_00000140008768550401251660000005583967989773996426_);" d="M1604.021,1085.809h-58.71
			c-9.824,0-17.788-7.964-17.788-17.788c0-9.824,7.964-17.788,17.788-17.788h58.71c9.824,0,17.788,7.964,17.788,17.788
			C1621.809,1077.845,1613.845,1085.809,1604.021,1085.809z"/>
		
			<linearGradient id="SVGID_00000104665414092801482190000013298357783558224261_" gradientUnits="userSpaceOnUse" x1="397.0655" y1="732.381" x2="1808.2201" y2="732.381">
			<stop  offset="0" style="stop-color:#11C3EF"/>
			<stop  offset="1" style="stop-color:#3B5CFF"/>
		</linearGradient>
		<path style="fill:url(#SVGID_00000104665414092801482190000013298357783558224261_);" d="M1414.882,770.927
			c-4.552,0-9.104-1.737-12.578-5.21c-6.947-6.947-6.948-18.21-0.001-25.156l41.514-41.515c6.947-6.947,18.21-6.947,25.156,0
			c6.947,6.946,6.948,18.21,0.001,25.156l-41.514,41.515C1423.987,769.19,1419.434,770.927,1414.882,770.927z"/>
		
			<linearGradient id="SVGID_00000163072933353589197290000011182756301409676980_" gradientUnits="userSpaceOnUse" x1="397.1602" y1="1068.0203" x2="1808.3148" y2="1068.0203">
			<stop  offset="0" style="stop-color:#11C3EF"/>
			<stop  offset="1" style="stop-color:#3B5CFF"/>
		</linearGradient>
		<path style="fill:url(#SVGID_00000163072933353589197290000011182756301409676980_);" d="M929.354,1177.075l63.177-62.375
			c17.431-17.371,31.17-32.326,41.212-44.867c10.041-12.538,17.259-24.434,21.651-35.69c4.393-11.252,6.59-23.527,6.59-36.822
			v-0.453c0-18.582-4.534-35.01-13.598-49.286c-9.067-14.275-21.687-25.492-37.865-33.649c-16.18-8.158-34.936-12.236-56.274-12.236
			c-21.2,0-40.201,4.458-57.006,13.369c-16.807,8.915-30.02,21.264-39.642,37.049c-9.624,15.787-14.435,33.955-14.435,54.497v1.813
			h58.574l0.21-2.039c0.277-9.818,2.647-18.581,7.112-26.286c4.462-7.704,10.597-13.823,18.409-18.354
			c7.809-4.532,16.873-6.798,27.196-6.798c8.923,0,16.804,1.966,23.64,5.892c6.831,3.93,12.202,9.329,16.107,16.202
			c3.904,6.875,5.858,14.842,5.858,23.907v0.452c0,7.556-1.222,14.768-3.661,21.641c-2.442,6.876-7.008,14.693-13.703,23.453
			c-6.693,8.763-16.525,19.714-29.496,32.857l-106.69,108.088v46.906h219.447v-54.384H929.354V1177.075z"/>
		
			<linearGradient id="SVGID_00000147943060894907668430000000272748141655868084_" gradientUnits="userSpaceOnUse" x1="397.0655" y1="1070.8525" x2="1808.2201" y2="1070.8525">
			<stop  offset="0" style="stop-color:#11C3EF"/>
			<stop  offset="1" style="stop-color:#3B5CFF"/>
		</linearGradient>
		<path style="fill:url(#SVGID_00000147943060894907668430000000272748141655868084_);" d="M1303.814,1102.533V907.361h-89.326
			c-7.95,13.901-112.966,178.782-120.916,192.68v57.33h149.994v76.974h60.248v-76.974h39.747v-54.837H1303.814z M1244.821,1104.345
			h-96.23l96.23-147.359V1104.345z"/>
		<ellipse style="fill:#D6DBE5;" cx="1100" cy="1873" rx="600.5" ry="39"/>
	</g>
</g>
</svg>
